<?xml version="1.0" encoding="utf-8" standalone="no"?>
<!DOCTYPE svg PUBLIC "-//W3C//DTD SVG 1.1//EN"
  "http://www.w3.org/Graphics/SVG/1.1/DTD/svg11.dtd">
<svg xmlns:xlink="http://www.w3.org/1999/xlink" width="503.74375pt" height="211.07625pt" viewBox="0 0 503.74375 211.07625" xmlns="http://www.w3.org/2000/svg" version="1.1">
 <metadata>
  <rdf:RDF xmlns:dc="http://purl.org/dc/elements/1.1/" xmlns:cc="http://creativecommons.org/ns#" xmlns:rdf="http://www.w3.org/1999/02/22-rdf-syntax-ns#">
   <cc:Work>
    <dc:type rdf:resource="http://purl.org/dc/dcmitype/StillImage"/>
    <dc:date>2024-10-31T21:42:28.872611</dc:date>
    <dc:format>image/svg+xml</dc:format>
    <dc:creator>
     <cc:Agent>
      <dc:title>Matplotlib v3.9.0, https://matplotlib.org/</dc:title>
     </cc:Agent>
    </dc:creator>
   </cc:Work>
  </rdf:RDF>
 </metadata>
 <defs>
  <style type="text/css">*{stroke-linejoin: round; stroke-linecap: butt}</style>
 </defs>
 <g id="figure_1">
  <g id="patch_1">
   <path d="M 0 211.07625 
L 503.74375 211.07625 
L 503.74375 0 
L 0 0 
z
" style="fill: #ffffff"/>
  </g>
  <g id="axes_1">
   <g id="patch_2">
    <path d="M 50.14375 173.52 
L 496.54375 173.52 
L 496.54375 7.2 
L 50.14375 7.2 
z
" style="fill: #ffffff"/>
   </g>
   <g id="matplotlib.axis_1">
    <g id="xtick_1">
     <g id="line2d_1">
      <defs>
       <path id="m323b96a3e6" d="M 0 0 
L 0 3.5 
" style="stroke: #000000; stroke-width: 0.8"/>
      </defs>
      <g>
       <use xlink:href="#m323b96a3e6" x="70.434659" y="173.52" style="stroke: #000000; stroke-width: 0.8"/>
      </g>
     </g>
     <g id="text_1">
      <!-- 0.0 -->
      <g transform="translate(62.483097 188.118438) scale(0.1 -0.1)">
       <defs>
        <path id="DejaVuSans-30" d="M 2034 4250 
Q 1547 4250 1301 3770 
Q 1056 3291 1056 2328 
Q 1056 1369 1301 889 
Q 1547 409 2034 409 
Q 2525 409 2770 889 
Q 3016 1369 3016 2328 
Q 3016 3291 2770 3770 
Q 2525 4250 2034 4250 
z
M 2034 4750 
Q 2819 4750 3233 4129 
Q 3647 3509 3647 2328 
Q 3647 1150 3233 529 
Q 2819 -91 2034 -91 
Q 1250 -91 836 529 
Q 422 1150 422 2328 
Q 422 3509 836 4129 
Q 1250 4750 2034 4750 
z
" transform="scale(0.015625)"/>
        <path id="DejaVuSans-2e" d="M 684 794 
L 1344 794 
L 1344 0 
L 684 0 
L 684 794 
z
" transform="scale(0.015625)"/>
       </defs>
       <use xlink:href="#DejaVuSans-30"/>
       <use xlink:href="#DejaVuSans-2e" x="63.623047"/>
       <use xlink:href="#DejaVuSans-30" x="95.410156"/>
      </g>
     </g>
    </g>
    <g id="xtick_2">
     <g id="line2d_2">
      <g>
       <use xlink:href="#m323b96a3e6" x="152.006153" y="173.52" style="stroke: #000000; stroke-width: 0.8"/>
      </g>
     </g>
     <g id="text_2">
      <!-- 0.1 -->
      <g transform="translate(144.05459 188.118438) scale(0.1 -0.1)">
       <defs>
        <path id="DejaVuSans-31" d="M 794 531 
L 1825 531 
L 1825 4091 
L 703 3866 
L 703 4441 
L 1819 4666 
L 2450 4666 
L 2450 531 
L 3481 531 
L 3481 0 
L 794 0 
L 794 531 
z
" transform="scale(0.015625)"/>
       </defs>
       <use xlink:href="#DejaVuSans-30"/>
       <use xlink:href="#DejaVuSans-2e" x="63.623047"/>
       <use xlink:href="#DejaVuSans-31" x="95.410156"/>
      </g>
     </g>
    </g>
    <g id="xtick_3">
     <g id="line2d_3">
      <g>
       <use xlink:href="#m323b96a3e6" x="233.577647" y="173.52" style="stroke: #000000; stroke-width: 0.8"/>
      </g>
     </g>
     <g id="text_3">
      <!-- 0.2 -->
      <g transform="translate(225.626084 188.118438) scale(0.1 -0.1)">
       <defs>
        <path id="DejaVuSans-32" d="M 1228 531 
L 3431 531 
L 3431 0 
L 469 0 
L 469 531 
Q 828 903 1448 1529 
Q 2069 2156 2228 2338 
Q 2531 2678 2651 2914 
Q 2772 3150 2772 3378 
Q 2772 3750 2511 3984 
Q 2250 4219 1831 4219 
Q 1534 4219 1204 4116 
Q 875 4013 500 3803 
L 500 4441 
Q 881 4594 1212 4672 
Q 1544 4750 1819 4750 
Q 2544 4750 2975 4387 
Q 3406 4025 3406 3419 
Q 3406 3131 3298 2873 
Q 3191 2616 2906 2266 
Q 2828 2175 2409 1742 
Q 1991 1309 1228 531 
z
" transform="scale(0.015625)"/>
       </defs>
       <use xlink:href="#DejaVuSans-30"/>
       <use xlink:href="#DejaVuSans-2e" x="63.623047"/>
       <use xlink:href="#DejaVuSans-32" x="95.410156"/>
      </g>
     </g>
    </g>
    <g id="xtick_4">
     <g id="line2d_4">
      <g>
       <use xlink:href="#m323b96a3e6" x="315.149141" y="173.52" style="stroke: #000000; stroke-width: 0.8"/>
      </g>
     </g>
     <g id="text_4">
      <!-- 0.3 -->
      <g transform="translate(307.197578 188.118438) scale(0.1 -0.1)">
       <defs>
        <path id="DejaVuSans-33" d="M 2597 2516 
Q 3050 2419 3304 2112 
Q 3559 1806 3559 1356 
Q 3559 666 3084 287 
Q 2609 -91 1734 -91 
Q 1441 -91 1130 -33 
Q 819 25 488 141 
L 488 750 
Q 750 597 1062 519 
Q 1375 441 1716 441 
Q 2309 441 2620 675 
Q 2931 909 2931 1356 
Q 2931 1769 2642 2001 
Q 2353 2234 1838 2234 
L 1294 2234 
L 1294 2753 
L 1863 2753 
Q 2328 2753 2575 2939 
Q 2822 3125 2822 3475 
Q 2822 3834 2567 4026 
Q 2313 4219 1838 4219 
Q 1578 4219 1281 4162 
Q 984 4106 628 3988 
L 628 4550 
Q 988 4650 1302 4700 
Q 1616 4750 1894 4750 
Q 2613 4750 3031 4423 
Q 3450 4097 3450 3541 
Q 3450 3153 3228 2886 
Q 3006 2619 2597 2516 
z
" transform="scale(0.015625)"/>
       </defs>
       <use xlink:href="#DejaVuSans-30"/>
       <use xlink:href="#DejaVuSans-2e" x="63.623047"/>
       <use xlink:href="#DejaVuSans-33" x="95.410156"/>
      </g>
     </g>
    </g>
    <g id="xtick_5">
     <g id="line2d_5">
      <g>
       <use xlink:href="#m323b96a3e6" x="396.720634" y="173.52" style="stroke: #000000; stroke-width: 0.8"/>
      </g>
     </g>
     <g id="text_5">
      <!-- 0.4 -->
      <g transform="translate(388.769072 188.118438) scale(0.1 -0.1)">
       <defs>
        <path id="DejaVuSans-34" d="M 2419 4116 
L 825 1625 
L 2419 1625 
L 2419 4116 
z
M 2253 4666 
L 3047 4666 
L 3047 1625 
L 3713 1625 
L 3713 1100 
L 3047 1100 
L 3047 0 
L 2419 0 
L 2419 1100 
L 313 1100 
L 313 1709 
L 2253 4666 
z
" transform="scale(0.015625)"/>
       </defs>
       <use xlink:href="#DejaVuSans-30"/>
       <use xlink:href="#DejaVuSans-2e" x="63.623047"/>
       <use xlink:href="#DejaVuSans-34" x="95.410156"/>
      </g>
     </g>
    </g>
    <g id="xtick_6">
     <g id="line2d_6">
      <g>
       <use xlink:href="#m323b96a3e6" x="478.292128" y="173.52" style="stroke: #000000; stroke-width: 0.8"/>
      </g>
     </g>
     <g id="text_6">
      <!-- 0.5 -->
      <g transform="translate(470.340566 188.118438) scale(0.1 -0.1)">
       <defs>
        <path id="DejaVuSans-35" d="M 691 4666 
L 3169 4666 
L 3169 4134 
L 1269 4134 
L 1269 2991 
Q 1406 3038 1543 3061 
Q 1681 3084 1819 3084 
Q 2600 3084 3056 2656 
Q 3513 2228 3513 1497 
Q 3513 744 3044 326 
Q 2575 -91 1722 -91 
Q 1428 -91 1123 -41 
Q 819 9 494 109 
L 494 744 
Q 775 591 1075 516 
Q 1375 441 1709 441 
Q 2250 441 2565 725 
Q 2881 1009 2881 1497 
Q 2881 1984 2565 2268 
Q 2250 2553 1709 2553 
Q 1456 2553 1204 2497 
Q 953 2441 691 2322 
L 691 4666 
z
" transform="scale(0.015625)"/>
       </defs>
       <use xlink:href="#DejaVuSans-30"/>
       <use xlink:href="#DejaVuSans-2e" x="63.623047"/>
       <use xlink:href="#DejaVuSans-35" x="95.410156"/>
      </g>
     </g>
    </g>
    <g id="text_7">
     <!-- X -->
     <g transform="translate(269.91875 201.796563) scale(0.1 -0.1)">
      <defs>
       <path id="DejaVuSans-58" d="M 403 4666 
L 1081 4666 
L 2241 2931 
L 3406 4666 
L 4084 4666 
L 2584 2425 
L 4184 0 
L 3506 0 
L 2194 1984 
L 872 0 
L 191 0 
L 1856 2491 
L 403 4666 
z
" transform="scale(0.015625)"/>
      </defs>
      <use xlink:href="#DejaVuSans-58"/>
     </g>
    </g>
   </g>
   <g id="matplotlib.axis_2">
    <g id="ytick_1">
     <g id="line2d_7">
      <defs>
       <path id="mbe54f0bff9" d="M 0 0 
L -3.5 0 
" style="stroke: #000000; stroke-width: 0.8"/>
      </defs>
      <g>
       <use xlink:href="#mbe54f0bff9" x="50.14375" y="165.96" style="stroke: #000000; stroke-width: 0.8"/>
      </g>
     </g>
     <g id="text_8">
      <!-- 0.00 -->
      <g transform="translate(20.878125 169.759219) scale(0.1 -0.1)">
       <use xlink:href="#DejaVuSans-30"/>
       <use xlink:href="#DejaVuSans-2e" x="63.623047"/>
       <use xlink:href="#DejaVuSans-30" x="95.410156"/>
       <use xlink:href="#DejaVuSans-30" x="159.033203"/>
      </g>
     </g>
    </g>
    <g id="ytick_2">
     <g id="line2d_8">
      <g>
       <use xlink:href="#mbe54f0bff9" x="50.14375" y="142.060012" style="stroke: #000000; stroke-width: 0.8"/>
      </g>
     </g>
     <g id="text_9">
      <!-- 0.02 -->
      <g transform="translate(20.878125 145.859231) scale(0.1 -0.1)">
       <use xlink:href="#DejaVuSans-30"/>
       <use xlink:href="#DejaVuSans-2e" x="63.623047"/>
       <use xlink:href="#DejaVuSans-30" x="95.410156"/>
       <use xlink:href="#DejaVuSans-32" x="159.033203"/>
      </g>
     </g>
    </g>
    <g id="ytick_3">
     <g id="line2d_9">
      <g>
       <use xlink:href="#mbe54f0bff9" x="50.14375" y="118.160024" style="stroke: #000000; stroke-width: 0.8"/>
      </g>
     </g>
     <g id="text_10">
      <!-- 0.04 -->
      <g transform="translate(20.878125 121.959242) scale(0.1 -0.1)">
       <use xlink:href="#DejaVuSans-30"/>
       <use xlink:href="#DejaVuSans-2e" x="63.623047"/>
       <use xlink:href="#DejaVuSans-30" x="95.410156"/>
       <use xlink:href="#DejaVuSans-34" x="159.033203"/>
      </g>
     </g>
    </g>
    <g id="ytick_4">
     <g id="line2d_10">
      <g>
       <use xlink:href="#mbe54f0bff9" x="50.14375" y="94.260035" style="stroke: #000000; stroke-width: 0.8"/>
      </g>
     </g>
     <g id="text_11">
      <!-- 0.06 -->
      <g transform="translate(20.878125 98.059254) scale(0.1 -0.1)">
       <defs>
        <path id="DejaVuSans-36" d="M 2113 2584 
Q 1688 2584 1439 2293 
Q 1191 2003 1191 1497 
Q 1191 994 1439 701 
Q 1688 409 2113 409 
Q 2538 409 2786 701 
Q 3034 994 3034 1497 
Q 3034 2003 2786 2293 
Q 2538 2584 2113 2584 
z
M 3366 4563 
L 3366 3988 
Q 3128 4100 2886 4159 
Q 2644 4219 2406 4219 
Q 1781 4219 1451 3797 
Q 1122 3375 1075 2522 
Q 1259 2794 1537 2939 
Q 1816 3084 2150 3084 
Q 2853 3084 3261 2657 
Q 3669 2231 3669 1497 
Q 3669 778 3244 343 
Q 2819 -91 2113 -91 
Q 1303 -91 875 529 
Q 447 1150 447 2328 
Q 447 3434 972 4092 
Q 1497 4750 2381 4750 
Q 2619 4750 2861 4703 
Q 3103 4656 3366 4563 
z
" transform="scale(0.015625)"/>
       </defs>
       <use xlink:href="#DejaVuSans-30"/>
       <use xlink:href="#DejaVuSans-2e" x="63.623047"/>
       <use xlink:href="#DejaVuSans-30" x="95.410156"/>
       <use xlink:href="#DejaVuSans-36" x="159.033203"/>
      </g>
     </g>
    </g>
    <g id="ytick_5">
     <g id="line2d_11">
      <g>
       <use xlink:href="#mbe54f0bff9" x="50.14375" y="70.360047" style="stroke: #000000; stroke-width: 0.8"/>
      </g>
     </g>
     <g id="text_12">
      <!-- 0.08 -->
      <g transform="translate(20.878125 74.159266) scale(0.1 -0.1)">
       <defs>
        <path id="DejaVuSans-38" d="M 2034 2216 
Q 1584 2216 1326 1975 
Q 1069 1734 1069 1313 
Q 1069 891 1326 650 
Q 1584 409 2034 409 
Q 2484 409 2743 651 
Q 3003 894 3003 1313 
Q 3003 1734 2745 1975 
Q 2488 2216 2034 2216 
z
M 1403 2484 
Q 997 2584 770 2862 
Q 544 3141 544 3541 
Q 544 4100 942 4425 
Q 1341 4750 2034 4750 
Q 2731 4750 3128 4425 
Q 3525 4100 3525 3541 
Q 3525 3141 3298 2862 
Q 3072 2584 2669 2484 
Q 3125 2378 3379 2068 
Q 3634 1759 3634 1313 
Q 3634 634 3220 271 
Q 2806 -91 2034 -91 
Q 1263 -91 848 271 
Q 434 634 434 1313 
Q 434 1759 690 2068 
Q 947 2378 1403 2484 
z
M 1172 3481 
Q 1172 3119 1398 2916 
Q 1625 2713 2034 2713 
Q 2441 2713 2670 2916 
Q 2900 3119 2900 3481 
Q 2900 3844 2670 4047 
Q 2441 4250 2034 4250 
Q 1625 4250 1398 4047 
Q 1172 3844 1172 3481 
z
" transform="scale(0.015625)"/>
       </defs>
       <use xlink:href="#DejaVuSans-30"/>
       <use xlink:href="#DejaVuSans-2e" x="63.623047"/>
       <use xlink:href="#DejaVuSans-30" x="95.410156"/>
       <use xlink:href="#DejaVuSans-38" x="159.033203"/>
      </g>
     </g>
    </g>
    <g id="ytick_6">
     <g id="line2d_12">
      <g>
       <use xlink:href="#mbe54f0bff9" x="50.14375" y="46.460059" style="stroke: #000000; stroke-width: 0.8"/>
      </g>
     </g>
     <g id="text_13">
      <!-- 0.10 -->
      <g transform="translate(20.878125 50.259278) scale(0.1 -0.1)">
       <use xlink:href="#DejaVuSans-30"/>
       <use xlink:href="#DejaVuSans-2e" x="63.623047"/>
       <use xlink:href="#DejaVuSans-31" x="95.410156"/>
       <use xlink:href="#DejaVuSans-30" x="159.033203"/>
      </g>
     </g>
    </g>
    <g id="ytick_7">
     <g id="line2d_13">
      <g>
       <use xlink:href="#mbe54f0bff9" x="50.14375" y="22.560071" style="stroke: #000000; stroke-width: 0.8"/>
      </g>
     </g>
     <g id="text_14">
      <!-- 0.12 -->
      <g transform="translate(20.878125 26.35929) scale(0.1 -0.1)">
       <use xlink:href="#DejaVuSans-30"/>
       <use xlink:href="#DejaVuSans-2e" x="63.623047"/>
       <use xlink:href="#DejaVuSans-31" x="95.410156"/>
       <use xlink:href="#DejaVuSans-32" x="159.033203"/>
      </g>
     </g>
    </g>
    <g id="text_15">
     <!-- Y -->
     <g transform="translate(14.798437 93.413906) rotate(-90) scale(0.1 -0.1)">
      <defs>
       <path id="DejaVuSans-59" d="M -13 4666 
L 666 4666 
L 1959 2747 
L 3244 4666 
L 3922 4666 
L 2272 2222 
L 2272 0 
L 1638 0 
L 1638 2222 
L -13 4666 
z
" transform="scale(0.015625)"/>
      </defs>
      <use xlink:href="#DejaVuSans-59"/>
     </g>
    </g>
   </g>
   <g id="line2d_14">
    <path d="M 476.252841 31.668689 
L 474.22375 24.480461 
L 472.204805 24.771238 
L 470.195954 23.85526 
L 468.197147 14.76 
L 466.208335 29.915379 
L 464.229467 32.057313 
L 462.260492 53.177571 
L 460.301363 62.037844 
L 458.35203 58.53903 
L 456.412443 72.822428 
L 454.482554 73.683226 
L 452.562315 57.590481 
L 448.750591 88.177549 
L 446.859012 100.111757 
L 444.97689 95.013181 
L 443.104179 95.500094 
L 441.240831 99.838986 
L 439.3868 89.259775 
L 437.542039 97.063658 
L 435.706503 106.12696 
L 433.880143 112.833115 
L 432.062916 118.6955 
L 430.254775 122.751116 
L 428.455674 125.007802 
L 426.665569 124.509011 
L 424.884414 128.064005 
L 423.112166 125.033003 
L 421.348778 119.232846 
L 419.594208 117.95263 
L 417.84841 120.306646 
L 416.111341 117.3248 
L 414.382958 116.978139 
L 412.663216 123.753685 
L 410.952073 127.758678 
L 409.249486 128.47295 
L 407.555412 133.294334 
L 405.869808 131.806509 
L 404.192633 135.951138 
L 400.863397 133.660003 
L 399.211253 130.926711 
L 397.56737 133.354898 
L 395.931707 134.905632 
L 394.304221 137.490262 
L 392.684874 138.782346 
L 391.073622 135.43119 
L 389.470428 137.078074 
L 387.875249 132.620072 
L 386.288046 128.960732 
L 384.708779 128.874556 
L 383.137408 132.423225 
L 381.573895 139.521533 
L 380.018198 139.760848 
L 376.930103 135.0805 
L 375.397625 132.474689 
L 372.35562 137.016814 
L 370.846015 135.283721 
L 369.343958 129.079248 
L 367.849412 127.537097 
L 366.362338 126.338969 
L 364.8827 126.355192 
L 363.410459 128.368125 
L 361.94558 127.354349 
L 360.488026 130.254694 
L 359.037759 137.409114 
L 357.594743 135.567118 
L 356.158943 135.763114 
L 354.730322 141.373818 
L 353.308843 141.582577 
L 351.894472 141.365202 
L 350.487173 137.020956 
L 349.086911 138.499876 
L 347.693649 137.396492 
L 346.307355 136.550398 
L 344.927991 138.29368 
L 343.555524 135.231893 
L 342.18992 130.829938 
L 340.831144 134.214913 
L 339.479161 130.222895 
L 338.133939 127.907461 
L 336.795442 128.910325 
L 335.463638 124.576052 
L 334.138494 122.850532 
L 332.819974 115.793067 
L 331.508048 121.828078 
L 330.202681 121.160529 
L 328.903841 117.670586 
L 327.611495 118.890477 
L 326.325611 118.241296 
L 325.046156 113.327036 
L 323.773098 111.793531 
L 322.506406 106.191288 
L 321.246048 109.401569 
L 319.991991 116.13072 
L 318.744204 128.105793 
L 317.502656 129.967683 
L 316.267316 125.89846 
L 315.038153 129.102483 
L 313.815135 131.733594 
L 312.598233 129.076757 
L 311.387415 132.444293 
L 310.182651 138.572981 
L 308.983911 140.137302 
L 307.791165 138.794406 
L 306.604383 134.526058 
L 305.423534 138.922163 
L 304.24859 138.977207 
L 303.07952 141.292584 
L 301.916296 142.980346 
L 300.758888 143.438975 
L 299.607266 144.554426 
L 298.461403 145.039208 
L 297.32127 146.835568 
L 296.186837 147.575811 
L 295.058076 148.105967 
L 293.934959 151.788978 
L 292.817457 150.871306 
L 291.705543 151.072721 
L 290.599189 150.926026 
L 288.403048 152.155099 
L 287.313206 151.911843 
L 286.228813 152.715658 
L 285.149842 152.651836 
L 284.076266 153.696017 
L 283.008058 152.943074 
L 280.887638 152.4727 
L 279.835374 155.805427 
L 278.78837 155.487086 
L 277.746601 157.390742 
L 276.710042 156.058629 
L 275.678665 156.251437 
L 274.652445 155.676261 
L 273.631356 155.616091 
L 272.615372 155.925427 
L 270.59862 156.208415 
L 269.5978 153.810953 
L 268.601984 153.50956 
L 266.625265 151.941668 
L 265.644312 153.632233 
L 264.668264 153.940207 
L 263.697096 151.395479 
L 262.730784 153.24079 
L 261.769303 154.260454 
L 260.81263 156.587265 
L 259.86074 156.086189 
L 258.91361 154.765086 
L 257.971215 155.33693 
L 257.033532 155.615566 
L 256.100538 156.069752 
L 255.172208 157.296013 
L 254.248521 156.621314 
L 253.329451 157.918709 
L 252.414977 160.555413 
L 251.505076 161.140444 
L 250.599724 160.855779 
L 248.802577 161.2308 
L 247.910738 160.616002 
L 247.023357 160.895392 
L 246.140414 160.803721 
L 244.387749 162.059786 
L 243.517983 161.978218 
L 242.652567 161.547482 
L 241.791477 162.232115 
L 240.934693 162.293076 
L 240.082193 162.125178 
L 239.233955 161.778827 
L 238.389959 161.865489 
L 237.550182 161.641854 
L 236.714605 161.890895 
L 235.883205 161.657695 
L 235.055962 161.922585 
L 233.413865 162.759785 
L 232.598969 162.697094 
L 230.98138 162.246277 
L 230.178646 161.789544 
L 229.379926 161.497747 
L 228.5852 161.478411 
L 227.794447 160.909481 
L 227.007648 160.78451 
L 225.445833 161.554044 
L 224.670777 161.302598 
L 223.899596 162.233198 
L 223.132271 162.21485 
L 222.368783 162.476296 
L 219.352815 162.388644 
L 218.608224 161.953101 
L 217.867357 162.176186 
L 217.130193 161.888852 
L 215.666905 160.949149 
L 214.940744 160.510453 
L 214.218213 160.451124 
L 213.499296 159.295558 
L 212.783972 159.280521 
L 212.072226 159.725062 
L 211.364038 159.514352 
L 210.659391 160.019242 
L 209.958267 159.493693 
L 209.260649 160.67052 
L 208.56652 160.492245 
L 207.87586 159.751054 
L 207.188654 160.836463 
L 206.504884 160.974621 
L 205.824533 162.108184 
L 205.147584 162.170094 
L 204.474019 161.290259 
L 203.803822 161.204433 
L 203.136976 161.611126 
L 202.473465 161.652162 
L 201.813271 161.230823 
L 201.156378 160.039368 
L 200.502769 160.909318 
L 199.852429 160.457396 
L 199.20534 160.890743 
L 197.920852 160.911422 
L 197.283421 160.815479 
L 196.649178 161.112449 
L 196.018105 161.748362 
L 195.390188 162.048306 
L 194.76541 161.900886 
L 193.525211 162.793364 
L 192.909758 163.029669 
L 192.297383 163.080256 
L 191.688069 163.578678 
L 191.081802 163.505184 
L 189.878347 162.031404 
L 189.281128 161.92465 
L 188.686896 162.365711 
L 188.095635 162.141784 
L 187.50733 162.477929 
L 186.921966 162.114466 
L 186.33953 162.301842 
L 185.760006 162.645795 
L 185.183379 162.009346 
L 184.609635 161.614551 
L 183.47074 161.176102 
L 182.905559 160.929083 
L 182.343205 161.210311 
L 181.783662 160.807728 
L 181.226917 161.111365 
L 180.672956 162.160563 
L 180.121764 161.965006 
L 179.573329 162.76045 
L 179.027636 162.852776 
L 178.484671 163.187045 
L 177.944421 162.841072 
L 177.406872 163.180019 
L 176.872011 163.365379 
L 176.339824 163.6824 
L 175.810298 163.861697 
L 174.759176 163.535999 
L 174.237554 163.436091 
L 173.718539 163.215594 
L 172.688282 163.229292 
L 171.668302 162.536395 
L 171.162134 162.160977 
L 170.658497 162.66114 
L 170.157378 162.790428 
L 169.658764 163.14615 
L 169.162644 163.059685 
L 168.669004 163.544129 
L 168.177832 163.532983 
L 167.689116 163.652681 
L 166.237581 163.379905 
L 165.758567 163.629427 
L 165.281947 163.717125 
L 164.335845 163.724567 
L 162.934358 164.363613 
L 162.47186 164.150185 
L 161.553789 164.265335 
L 160.193824 164.080912 
L 159.298477 164.484626 
L 158.41206 164.191918 
L 157.972173 163.849526 
L 157.534486 163.786987 
L 156.23451 164.2063 
L 155.805511 164.10064 
L 155.378656 164.173925 
L 154.953936 164.094735 
L 154.53134 164.417512 
L 154.110856 164.361508 
L 153.692475 164.127148 
L 153.276186 164.040068 
L 152.861979 164.164728 
L 152.449842 163.985038 
L 152.039766 163.513176 
L 151.631741 163.603276 
L 151.225755 163.297762 
L 150.8218 162.640103 
L 150.419864 162.782792 
L 150.019938 162.52129 
L 149.622012 161.807387 
L 149.226075 161.650476 
L 148.832118 160.85392 
L 148.440131 160.734153 
L 148.050103 161.165262 
L 147.662026 160.241914 
L 147.275889 160.526959 
L 146.891683 160.192852 
L 146.509398 161.195045 
L 146.129024 160.95502 
L 145.750552 161.337875 
L 144.999276 161.030694 
L 144.626453 161.121252 
L 144.255494 160.820241 
L 143.88639 161.376891 
L 143.519131 160.864428 
L 142.068368 161.299437 
L 141.7102 161.322723 
L 140.999226 163.063096 
L 140.646403 163.360099 
L 140.295345 163.347669 
L 139.946041 163.710392 
L 138.566205 163.89618 
L 137.886593 164.155104 
L 137.549334 163.812033 
L 137.21376 163.972624 
L 136.879865 163.982274 
L 136.547639 163.633665 
L 135.888162 163.449757 
L 135.560894 163.721632 
L 135.235263 163.665335 
L 134.91126 163.343775 
L 134.588877 163.548006 
L 134.268106 162.973475 
L 133.948939 162.93478 
L 133.631367 163.272166 
L 133.315384 163.423655 
L 133.00098 163.164037 
L 132.376881 163.552424 
L 132.06717 163.383163 
L 131.147297 164.117495 
L 129.942121 164.516079 
L 129.644584 164.171362 
L 129.053965 163.967336 
L 128.760868 164.082177 
L 128.469237 163.639083 
L 128.179064 163.575515 
L 127.317222 163.078247 
L 127.032809 162.725138 
L 126.749818 162.761986 
L 126.468242 162.449018 
L 126.188074 162.84342 
L 125.631934 162.566285 
L 125.355948 162.706821 
L 125.081341 163.780944 
L 124.808108 164.141653 
L 124.536241 164.122809 
L 124.265733 164.292242 
L 123.996577 164.173696 
L 123.728768 164.356425 
L 123.462297 164.140254 
L 123.197159 164.165597 
L 122.933346 164.502756 
L 122.670853 164.641626 
L 122.149797 164.609307 
L 121.633939 164.538418 
L 121.377942 164.686654 
L 120.869783 164.685652 
L 120.366693 164.864019 
L 119.621451 164.666951 
L 119.375517 164.762396 
L 118.887332 164.74712 
L 118.164169 164.819282 
L 117.925522 164.669151 
L 117.451801 165.021786 
L 116.982805 165.103197 
L 116.518487 165.111718 
L 116.058801 165.190999 
L 115.6037 165.309729 
L 114.48571 165.406901 
L 113.395391 165.261916 
L 112.542599 165.467913 
L 110.084456 165.728627 
L 109.103074 165.781052 
L 107.583136 165.819488 
L 88.484137 165.80392 
L 87.176795 165.788369 
L 86.844455 165.757649 
L 86.599537 165.780063 
L 85.964145 165.76273 
L 85.504045 165.795577 
L 84.911713 165.792084 
L 84.624336 165.747568 
L 84.342664 165.786967 
L 79.936746 165.918681 
L 70.434659 165.96 
L 70.434659 165.96 
" clip-path="url(#pa0fcf112bb)" style="fill: none; stroke: #1f77b4; stroke-width: 1.5; stroke-linecap: square"/>
   </g>
   <g id="patch_3">
    <path d="M 50.14375 173.52 
L 50.14375 7.2 
" style="fill: none; stroke: #000000; stroke-width: 0.8; stroke-linejoin: miter; stroke-linecap: square"/>
   </g>
   <g id="patch_4">
    <path d="M 496.54375 173.52 
L 496.54375 7.2 
" style="fill: none; stroke: #000000; stroke-width: 0.8; stroke-linejoin: miter; stroke-linecap: square"/>
   </g>
   <g id="patch_5">
    <path d="M 50.14375 173.52 
L 496.54375 173.52 
" style="fill: none; stroke: #000000; stroke-width: 0.8; stroke-linejoin: miter; stroke-linecap: square"/>
   </g>
   <g id="patch_6">
    <path d="M 50.14375 7.2 
L 496.54375 7.2 
" style="fill: none; stroke: #000000; stroke-width: 0.8; stroke-linejoin: miter; stroke-linecap: square"/>
   </g>
  </g>
 </g>
 <defs>
  <clipPath id="pa0fcf112bb">
   <rect x="50.14375" y="7.2" width="446.4" height="166.32"/>
  </clipPath>
 </defs>
</svg>
